<?xml version="1.0" encoding="utf-8"?>
<!-- Generator: Adobe Illustrator 24.0.0, SVG Export Plug-In . SVG Version: 6.00 Build 0)  -->
<svg version="1.1" id="Layer_1" xmlns="http://www.w3.org/2000/svg" xmlns:xlink="http://www.w3.org/1999/xlink" x="0px" y="0px"
	 viewBox="0 0 79 77.5" style="enable-background:new 0 0 79 77.5;" xml:space="preserve">
<style type="text/css">
	.st0{fill:url(#SVGID_1_);}
	.st1{fill:#CB3E32;}
	.st2{fill:#935AA3;}
	.st3{fill:#3A9746;}
</style>
<radialGradient id="SVGID_1_" cx="-45.4331" cy="60.0468" r="61.6" gradientTransform="matrix(1.0199 0 0 -0.9999 80.1193 89.3446)" gradientUnits="userSpaceOnUse">
	<stop  offset="0" style="stop-color:#BDE7FB"/>
	<stop  offset="4.000000e-02" style="stop-color:#B9E5FB"/>
	<stop  offset="9.000000e-02" style="stop-color:#AAE0FA"/>
	<stop  offset="0.15" style="stop-color:#90D9F8"/>
	<stop  offset="0.21" style="stop-color:#6ECFF5"/>
	<stop  offset="0.21" style="stop-color:#6CCFF6"/>
	<stop  offset="0.31" style="stop-color:#67CAF3"/>
	<stop  offset="0.43" style="stop-color:#58BDEC"/>
	<stop  offset="0.56" style="stop-color:#3DA7DD"/>
	<stop  offset="0.7" style="stop-color:#1D89CA"/>
	<stop  offset="0.79" style="stop-color:#0D73BB"/>
	<stop  offset="1" style="stop-color:#0756A5"/>
</radialGradient>
<path class="st0" d="M74,39.3c-0.1-1.6,0.4-3.3,1.4-4.6c3-4.1,4.2-9.2,3.3-14.1c-2-10.5-10.1-18.3-21-20.2c-4.5-0.8-9.2,0-13.2,2.3
	c-4,2.4-8.3,7.8-8.3,16.8c0,4.7-1.2,8.5-3.9,11.4c-2.9,2.5-6.6,3.8-10.4,3.8c-8.3,0-12.6-6.4-11.7-12.9c1.3-7.2,7.1-12.6,14.3-13.5
	c2.3-0.2,4.7,0.1,6.9,0.9c1.4,0.6,3,0,3.7-1.4c1.1-1.6,0.9-4.2-2.3-5.8c-3.6-1.7-7.6-2.2-11.5-1.4c-10.9,1.9-19,9.7-21,20.2
	c-0.9,5,0.3,10.1,3.3,14.1c4.5,6.3,11.5,8.1,15.8,8.9c9.5,1.8,13.7,7,14.2,14.3c0.3,7.3-5.1,11.2-11.4,10.1
	C15.9,66.9,11,61.9,9.8,55.5c-0.4-2.5,0-5.2,1.2-7.4c0.6-1.2-0.4-2.7-2.4-3.8c-2-1.1-4.1-1.5-5-0.3c-2.4,3.3-3.4,8.3-2.4,13.2
	c2.2,10,10.2,17.8,20.3,19.8c4.8,0.9,8.5,0,13-2c2.6-1.1,6.7-1,10,0.4c4,1.9,8.5,2.6,12.9,2c10.7-1.9,18.8-9.4,21-19.8
	c0.8-4.7-0.2-9.6-2.9-13.6C74.5,42.6,74,40.9,74,39.3z M69.6,55.6c-1.1,6.9-6.6,12.2-13.6,13c-7,0.8-12.9-3.6-13-11.1
	c0.2-7.5,7-14.1,14.9-14.4C65.7,43,70.4,48.8,69.6,55.6L69.6,55.6z M59.7,32.1c-7.8-0.3-14.6-6.9-14.9-14.3
	c-0.1-7.3,5.9-11.6,12.9-10.9C64.5,7.8,70,13,71.2,19.8C72.1,26.5,67.5,32.2,59.7,32.1z"/>
<g id="g890">
	<path id="path13" class="st1" d="M21.8,65c-4.9,0-8.9-4-8.9-8.9c0-4.9,4-8.9,8.9-8.9c4.9,0,8.9,4,8.9,8.9C30.7,61,26.7,65,21.8,65z
		"/>
	<path id="path25" class="st2" d="M58,28.4c-4.9,0-8.9-4-8.9-8.9c0-4.9,4-8.9,8.9-8.9c4.9,0,8.9,4,8.9,8.9C67,24.4,63,28.4,58,28.4z
		"/>
	<path id="path31" class="st3" d="M56.4,64.8c-4.9,0-8.9-4-8.9-8.9c0-4.9,4-8.9,8.9-8.9c4.9,0,8.9,4,8.9,8.9
		C65.3,60.8,61.3,64.8,56.4,64.8C56.4,64.8,56.4,64.8,56.4,64.8z"/>
</g>
</svg>
