<?xml version="1.0" encoding="UTF-8"?>
<!DOCTYPE svg PUBLIC "-//W3C//DTD SVG 1.1//EN" "http://www.w3.org/Graphics/SVG/1.1/DTD/svg11.dtd">
<svg version="1.1" xmlns="http://www.w3.org/2000/svg" xmlns:xlink="http://www.w3.org/1999/xlink" x="0" y="0" width="300" height="88.119" viewBox="0, 0, 300, 88.119">
  <g id="Layer_1">
    <path d="M-0,0 L300,0 L300,88.119 L-0,88.119 L-0,0 z" fill="#FFFFFF"/>
    <path d="M0,0 L0,88.119 L108.997,88.118 C108.156,87.523 107.374,86.893 106.676,86.225 C100.451,80.206 100.364,73.215 100.186,66.664 L100.186,29.488 L120.101,29.488 L120.101,68.524 C120.101,71.18 120.191,73.923 122.413,76.046 C124.012,77.73 126.414,78.348 128.724,78.348 C131.836,78.348 133.882,77.195 135.038,76.136 C137.348,73.923 137.436,71.18 137.436,68.524 L137.436,29.488 L157.439,29.488 L157.439,62.77 C157.439,69.937 157.439,79.233 150.061,86.225 C149.356,86.886 148.578,87.516 147.738,88.118 L177.56,88.118 C168.781,81.82 164.656,71.295 164.656,61.087 C164.656,44.269 175.948,27.185 197.194,27.185 C206.706,27.185 215.773,30.551 222.354,37.279 C225.022,40.022 226.267,42.146 227.598,44.623 L210.976,52.857 C209.373,49.137 206.351,42.5 197.994,42.5 C193.638,42.5 190.882,44.536 189.548,45.864 C184.836,50.376 184.836,57.458 184.836,59.94 C184.836,69.231 188.306,77.996 198.084,77.996 C207.331,77.996 210.087,69.85 210.798,67.727 L227.688,75.87 C226.087,78.879 224.577,81.712 221.557,84.72 C220.258,85.991 218.854,87.119 217.37,88.118 L235.634,88.118 L235.634,29.399 L255.457,29.399 L255.457,75.55 L281.182,75.55 L281.182,88.118 L300,88.109 L300,0 L0,0" fill="#231F20" id="path22"/>
    <path d="M90.102,43.514 C90.063,43.506 79.374,41.209 79.374,41.209 C79.374,41.209 68.67,43.509 68.649,43.514 C68.591,43.526 68.611,43.575 68.611,43.575 L68.759,44.124 L68.79,44.123 L68.786,44.124 C68.786,44.124 68.951,44.103 69.048,44.256 L69.208,45.138 C69.208,45.138 69.212,45.2 69.275,45.2 C69.341,45.2 69.663,45.2 69.663,45.2 L89.085,45.2 C89.085,45.2 89.423,45.2 89.477,45.2 C89.531,45.2 89.536,45.154 89.536,45.154 L89.697,44.272 C89.789,44.1 89.968,44.124 89.968,44.124 L89.964,44.123 L89.991,44.124 L90.14,43.575 C90.14,43.575 90.161,43.526 90.102,43.514" fill="#FFFFFF" id="path24"/>
    <path d="M88.98,45.483 C88.992,45.483 89.003,45.474 89.003,45.459 L89.003,45.185 C89.003,45.171 88.992,45.183 88.98,45.183 L87.35,45.183 C87.338,45.183 87.325,45.171 87.325,45.185 L87.325,45.459 C87.325,45.474 87.338,45.483 87.35,45.483 L87.419,45.484 C87.452,45.484 87.454,45.517 87.454,45.549 C87.454,45.59 87.472,45.801 87.619,45.929 C87.641,45.948 87.635,46 87.589,46 C87.585,46 87.543,46 87.539,46 C87.502,46 87.5,46.025 87.512,46.045 C87.525,46.069 87.529,46.142 87.529,46.175 C87.529,46.21 87.529,46.27 87.529,46.294 C87.529,46.316 87.531,46.333 87.552,46.333 C87.554,46.333 87.575,46.333 87.577,46.333 C87.577,46.333 87.593,46.331 87.593,46.351 C87.593,46.366 87.593,46.374 87.593,46.374 L87.593,52.368 C87.575,52.387 87.512,52.451 87.506,52.456 C87.502,52.461 87.496,52.468 87.496,52.478 L87.496,52.579 C87.496,52.587 87.494,52.597 87.488,52.601 C87.484,52.606 87.475,52.608 87.466,52.608 L87.391,52.608 C87.377,52.608 87.365,52.62 87.365,52.633 C87.365,52.633 87.365,52.8 87.365,52.806 L88.962,52.806 C88.962,52.8 88.962,52.633 88.962,52.633 C88.962,52.62 88.951,52.608 88.939,52.608 L88.864,52.608 C88.855,52.608 88.847,52.606 88.841,52.601 C88.837,52.597 88.834,52.587 88.834,52.579 L88.834,52.478 C88.834,52.47 88.832,52.464 88.824,52.456 C88.814,52.448 88.762,52.395 88.737,52.368 L88.737,46.374 C88.737,46.374 88.737,46.366 88.737,46.351 C88.737,46.331 88.753,46.333 88.753,46.333 C88.754,46.333 88.774,46.333 88.776,46.333 C88.796,46.333 88.8,46.316 88.8,46.294 C88.8,46.27 88.8,46.21 88.8,46.175 C88.8,46.142 88.806,46.069 88.818,46.045 C88.832,46.025 88.828,46 88.789,46 C88.787,46 88.743,46 88.741,46 C88.695,46 88.689,45.948 88.709,45.929 C88.859,45.807 88.874,45.595 88.874,45.553 C88.874,45.517 88.872,45.484 88.913,45.484 L88.98,45.483" fill="#FFFFFF" id="path26"/>
    <path d="M85.466,45.483 C85.477,45.483 85.489,45.474 85.489,45.459 L85.489,45.185 C85.489,45.171 85.477,45.183 85.466,45.183 L83.833,45.183 C83.821,45.183 83.811,45.171 83.811,45.185 L83.811,45.459 C83.811,45.474 83.821,45.483 83.833,45.483 L83.904,45.484 C83.936,45.484 83.938,45.517 83.938,45.549 C83.938,45.59 83.957,45.801 84.104,45.929 C84.124,45.948 84.116,46 84.074,46 C84.07,46 84.027,46 84.025,46 C83.986,46 83.982,46.025 83.993,46.045 C84.009,46.069 84.011,46.142 84.011,46.175 C84.011,46.21 84.011,46.27 84.011,46.294 C84.011,46.316 84.015,46.333 84.036,46.333 L84.059,46.333 C84.059,46.333 84.076,46.331 84.076,46.351 C84.076,46.366 84.078,46.374 84.078,46.374 L84.078,52.368 C84.059,52.387 83.993,52.451 83.989,52.456 C83.984,52.461 83.98,52.468 83.98,52.478 L83.98,52.579 C83.98,52.587 83.98,52.597 83.972,52.601 C83.969,52.606 83.961,52.608 83.951,52.608 L83.874,52.608 C83.863,52.608 83.853,52.62 83.853,52.633 C83.853,52.633 83.853,52.8 83.853,52.806 L85.446,52.806 C85.446,52.8 85.446,52.633 85.446,52.633 C85.446,52.62 85.434,52.608 85.424,52.608 L85.348,52.608 C85.339,52.608 85.329,52.606 85.325,52.601 C85.319,52.597 85.317,52.587 85.317,52.579 L85.317,52.478 C85.317,52.47 85.315,52.464 85.307,52.456 C85.3,52.448 85.248,52.395 85.22,52.368 L85.22,46.374 C85.22,46.374 85.22,46.366 85.22,46.351 C85.22,46.331 85.238,46.333 85.238,46.333 C85.24,46.333 85.258,46.333 85.26,46.333 C85.281,46.333 85.282,46.316 85.282,46.294 C85.282,46.27 85.282,46.21 85.282,46.175 C85.282,46.142 85.29,46.069 85.303,46.045 C85.313,46.025 85.309,46 85.273,46 C85.271,46 85.228,46 85.224,46 C85.178,46 85.173,45.948 85.194,45.929 C85.344,45.807 85.359,45.595 85.359,45.553 C85.359,45.517 85.357,45.484 85.396,45.484 L85.466,45.483" fill="#FFFFFF" id="path28"/>
    <path d="M81.949,45.483 C81.963,45.483 81.971,45.474 81.971,45.459 L81.971,45.185 C81.971,45.171 81.963,45.183 81.949,45.183 L80.318,45.183 C80.304,45.183 80.294,45.171 80.294,45.185 L80.294,45.459 C80.294,45.474 80.304,45.483 80.318,45.483 L80.389,45.484 C80.419,45.484 80.421,45.517 80.421,45.549 C80.421,45.59 80.441,45.801 80.589,45.929 C80.609,45.948 80.601,46 80.558,46 C80.554,46 80.51,46 80.508,46 C80.469,46 80.467,46.025 80.479,46.045 C80.492,46.069 80.496,46.142 80.496,46.175 C80.496,46.21 80.496,46.27 80.496,46.294 C80.496,46.316 80.498,46.333 80.518,46.333 C80.52,46.333 80.542,46.333 80.544,46.333 C80.544,46.333 80.562,46.331 80.562,46.351 C80.562,46.366 80.562,46.374 80.562,46.374 L80.562,52.368 C80.544,52.387 80.479,52.451 80.473,52.456 C80.467,52.461 80.463,52.468 80.463,52.478 L80.463,52.579 C80.463,52.587 80.461,52.597 80.458,52.601 C80.452,52.606 80.443,52.608 80.435,52.608 L80.36,52.608 C80.348,52.608 80.336,52.62 80.336,52.633 C80.336,52.633 80.336,52.8 80.336,52.806 L81.93,52.806 C81.93,52.8 81.93,52.633 81.93,52.633 C81.93,52.62 81.919,52.608 81.907,52.608 L81.832,52.608 C81.822,52.608 81.812,52.606 81.808,52.601 C81.805,52.597 81.801,52.587 81.801,52.579 L81.801,52.478 C81.801,52.47 81.799,52.464 81.793,52.456 C81.784,52.448 81.733,52.395 81.705,52.368 L81.705,46.374 C81.705,46.374 81.705,46.366 81.705,46.351 C81.705,46.331 81.722,46.333 81.722,46.333 C81.724,46.333 81.741,46.333 81.741,46.333 C81.767,46.333 81.768,46.316 81.768,46.294 C81.768,46.27 81.768,46.21 81.768,46.175 C81.768,46.142 81.774,46.069 81.787,46.045 C81.797,46.025 81.797,46 81.759,46 C81.757,46 81.712,46 81.709,46 C81.662,46 81.656,45.948 81.68,45.929 C81.828,45.807 81.842,45.595 81.842,45.553 C81.842,45.517 81.842,45.484 81.88,45.484 L81.949,45.483" fill="#FFFFFF" id="path30"/>
    <path d="M78.433,45.483 C78.446,45.483 78.456,45.474 78.456,45.459 L78.456,45.185 C78.456,45.171 78.446,45.183 78.433,45.183 L76.801,45.183 C76.788,45.183 76.78,45.171 76.78,45.185 L76.78,45.459 C76.78,45.474 76.788,45.483 76.801,45.483 L76.871,45.484 C76.903,45.484 76.905,45.517 76.905,45.549 C76.905,45.59 76.924,45.801 77.073,45.929 C77.094,45.948 77.084,46 77.041,46 C77.039,46 76.994,46 76.992,46 C76.954,46 76.952,46.025 76.963,46.045 C76.976,46.069 76.98,46.142 76.98,46.175 C76.98,46.21 76.98,46.27 76.98,46.294 C76.98,46.316 76.982,46.333 77.005,46.333 C77.005,46.333 77.027,46.333 77.029,46.333 C77.029,46.333 77.045,46.331 77.045,46.351 C77.045,46.366 77.045,46.374 77.045,46.374 L77.045,52.368 C77.029,52.387 76.963,52.451 76.958,52.456 C76.954,52.461 76.95,52.468 76.95,52.478 L76.95,52.579 C76.95,52.587 76.948,52.597 76.942,52.601 C76.936,52.606 76.926,52.608 76.918,52.608 L76.843,52.608 C76.83,52.608 76.821,52.62 76.821,52.633 C76.821,52.633 76.821,52.8 76.821,52.806 L78.414,52.806 C78.414,52.8 78.414,52.633 78.414,52.633 C78.414,52.62 78.404,52.608 78.391,52.608 L78.315,52.608 C78.306,52.608 78.298,52.606 78.292,52.601 C78.288,52.597 78.286,52.587 78.286,52.579 L78.286,52.478 C78.286,52.47 78.284,52.464 78.277,52.456 C78.268,52.448 78.215,52.395 78.191,52.368 L78.191,46.374 C78.191,46.374 78.189,46.366 78.189,46.351 C78.189,46.331 78.206,46.333 78.206,46.333 C78.208,46.333 78.227,46.333 78.229,46.333 C78.248,46.333 78.252,46.316 78.252,46.294 C78.252,46.27 78.252,46.21 78.252,46.175 C78.252,46.142 78.258,46.069 78.272,46.045 C78.282,46.025 78.279,46 78.242,46 C78.238,46 78.196,46 78.194,46 C78.146,46 78.14,45.948 78.161,45.929 C78.312,45.807 78.327,45.595 78.327,45.553 C78.327,45.517 78.325,45.484 78.363,45.484 L78.433,45.483" fill="#FFFFFF" id="path32"/>
    <path d="M74.917,45.483 C74.93,45.483 74.94,45.474 74.94,45.459 L74.94,45.185 C74.94,45.171 74.93,45.183 74.917,45.183 L73.287,45.183 C73.273,45.183 73.263,45.171 73.263,45.185 L73.263,45.459 C73.263,45.474 73.273,45.483 73.287,45.483 L73.354,45.484 C73.389,45.484 73.391,45.517 73.391,45.549 C73.391,45.59 73.41,45.801 73.558,45.929 C73.578,45.948 73.57,46 73.526,46 C73.524,46 73.477,46 73.475,46 C73.437,46 73.435,46.025 73.447,46.045 C73.461,46.069 73.464,46.142 73.464,46.175 C73.464,46.21 73.464,46.27 73.464,46.294 C73.464,46.316 73.465,46.333 73.489,46.333 C73.491,46.333 73.51,46.333 73.512,46.333 C73.512,46.333 73.53,46.331 73.53,46.351 C73.53,46.366 73.53,46.374 73.53,46.374 L73.53,52.368 C73.512,52.387 73.447,52.451 73.443,52.456 C73.437,52.461 73.433,52.468 73.433,52.478 L73.433,52.579 C73.433,52.587 73.431,52.597 73.425,52.601 C73.422,52.606 73.412,52.608 73.402,52.608 L73.329,52.608 C73.316,52.608 73.304,52.62 73.304,52.633 C73.304,52.633 73.304,52.8 73.304,52.806 L74.898,52.806 C74.898,52.8 74.898,52.633 74.898,52.633 C74.898,52.62 74.888,52.608 74.876,52.608 L74.799,52.608 C74.791,52.608 74.783,52.606 74.778,52.601 C74.773,52.597 74.771,52.587 74.771,52.579 L74.771,52.478 C74.771,52.47 74.769,52.464 74.761,52.456 C74.753,52.448 74.699,52.395 74.672,52.368 L74.672,46.374 C74.672,46.374 74.672,46.366 74.672,46.351 C74.672,46.331 74.69,46.333 74.69,46.333 C74.692,46.333 74.71,46.333 74.71,46.333 C74.734,46.333 74.736,46.316 74.736,46.294 C74.736,46.27 74.736,46.21 74.736,46.175 C74.736,46.142 74.741,46.069 74.755,46.045 C74.769,46.025 74.765,46 74.726,46 C74.724,46 74.68,46 74.676,46 C74.629,46 74.624,45.948 74.645,45.929 C74.795,45.807 74.811,45.595 74.811,45.553 C74.811,45.517 74.809,45.484 74.847,45.484 L74.917,45.483" fill="#FFFFFF" id="path34"/>
    <path d="M71.401,45.483 C71.414,45.483 71.425,45.474 71.425,45.459 L71.425,45.185 C71.425,45.171 71.414,45.183 71.401,45.183 L69.77,45.183 C69.757,45.183 69.747,45.171 69.747,45.185 L69.747,45.459 C69.747,45.474 69.757,45.483 69.77,45.483 L69.84,45.484 C69.873,45.484 69.875,45.517 69.875,45.549 C69.875,45.59 69.893,45.801 70.042,45.929 C70.061,45.948 70.053,46 70.011,46 C70.008,46 69.964,46 69.96,46 C69.923,46 69.921,46.025 69.932,46.045 C69.946,46.069 69.948,46.142 69.948,46.175 C69.948,46.21 69.948,46.27 69.948,46.294 C69.948,46.316 69.95,46.333 69.972,46.333 L69.996,46.333 C69.996,46.333 70.013,46.331 70.013,46.351 C70.013,46.366 70.013,46.374 70.013,46.374 L70.013,52.368 C69.996,52.387 69.932,52.451 69.927,52.456 C69.921,52.461 69.917,52.468 69.917,52.478 L69.917,52.579 C69.917,52.587 69.915,52.597 69.911,52.601 C69.905,52.606 69.895,52.608 69.888,52.608 L69.813,52.608 C69.8,52.608 69.788,52.62 69.788,52.633 C69.788,52.633 69.788,52.8 69.788,52.806 L71.383,52.806 C71.383,52.8 71.383,52.633 71.383,52.633 C71.383,52.62 71.373,52.608 71.36,52.608 L71.283,52.608 C71.275,52.608 71.266,52.606 71.262,52.601 C71.256,52.597 71.254,52.587 71.254,52.579 L71.254,52.478 C71.254,52.47 71.252,52.464 71.246,52.456 C71.237,52.448 71.183,52.395 71.158,52.368 L71.158,46.374 C71.158,46.374 71.158,46.366 71.158,46.351 C71.158,46.331 71.173,46.333 71.173,46.333 C71.175,46.333 71.195,46.333 71.195,46.333 C71.217,46.333 71.221,46.316 71.221,46.294 C71.221,46.27 71.221,46.21 71.221,46.175 C71.221,46.142 71.225,46.069 71.241,46.045 C71.25,46.025 71.248,46 71.211,46 C71.207,46 71.165,46 71.162,46 C71.114,46 71.11,45.948 71.131,45.929 C71.279,45.807 71.294,45.595 71.294,45.553 C71.294,45.517 71.292,45.484 71.333,45.484 L71.401,45.483" fill="#FFFFFF" id="path36"/>
    <path d="M84.365,39.135 C84.365,39.135 84.233,39.135 84.197,39.135 C84.153,39.135 84.155,39.098 84.155,39.098 C84.155,39.098 84.155,38.954 84.155,38.917 C84.155,38.871 84.11,38.871 84.11,38.871 C84.11,38.871 83.986,38.871 83.945,38.871 C83.899,38.871 83.901,38.83 83.901,38.83 L83.901,38.663 C83.901,38.663 83.901,38.626 83.859,38.626 C83.843,38.626 83.787,38.626 83.76,38.626 C83.726,38.626 83.689,38.597 83.687,38.55 C83.682,38.322 83.76,36.713 82.911,35.549 C82.242,34.549 81.321,34.042 80.813,33.805 C80.803,33.588 80.494,33.506 80.36,33.459 C80.288,33.435 80.227,33.407 80.227,33.344 C80.227,33.34 80.225,33.273 80.225,33.27 C80.225,33.202 80.287,33.175 80.379,33.178 C80.408,33.179 80.429,33.154 80.429,33.136 L80.429,32.94 C80.429,32.912 80.404,32.881 80.364,32.881 C80.296,32.881 80.219,32.881 80.18,32.881 C80.136,32.881 80.115,32.841 80.115,32.816 C80.115,32.777 80.115,32.795 80.115,32.719 C80.115,32.661 80.071,32.629 80.036,32.612 L80.036,31.412 C80.036,31.371 80.067,31.377 80.094,31.377 C80.098,31.377 80.104,31.377 80.107,31.375 L80.111,31.375 C80.126,31.375 80.14,31.361 80.14,31.346 L80.14,31.231 C80.14,31.215 80.126,31.203 80.111,31.203 L80.057,31.203 C80.038,31.194 80.025,31.169 80.025,31.115 C80.025,31.06 80.041,31.033 80.065,31.029 L80.111,31.029 C80.126,31.029 80.14,31.016 80.14,31 L80.14,30.884 C80.14,30.869 80.126,30.856 80.111,30.856 L80.049,30.856 C80.023,30.852 80.003,30.84 79.976,30.819 C79.772,30.657 79.566,30.424 79.566,30.39 C79.566,30.371 79.566,30.37 79.566,30.346 C79.566,30.322 79.541,30.273 79.485,30.273 C79.431,30.273 79.439,30.217 79.467,30.217 C79.487,30.217 79.491,30.211 79.491,30.185 C79.491,30.168 79.491,30.138 79.491,30.107 C79.491,30.072 79.386,29.928 79.386,29.928 L79.379,29.928 C79.379,29.928 79.273,30.072 79.273,30.107 C79.273,30.138 79.273,30.168 79.273,30.185 C79.273,30.211 79.281,30.217 79.299,30.217 C79.327,30.217 79.335,30.273 79.283,30.273 C79.227,30.273 79.202,30.322 79.202,30.346 C79.202,30.37 79.2,30.371 79.2,30.39 C79.2,30.424 78.994,30.657 78.79,30.819 C78.763,30.84 78.743,30.852 78.717,30.856 L78.654,30.856 C78.64,30.856 78.626,30.869 78.626,30.884 L78.626,31 C78.626,31.016 78.64,31.029 78.654,31.029 L78.703,31.029 C78.724,31.033 78.741,31.06 78.741,31.115 C78.741,31.169 78.727,31.194 78.709,31.203 L78.654,31.203 C78.64,31.203 78.626,31.215 78.626,31.231 L78.626,31.346 C78.626,31.361 78.64,31.375 78.654,31.375 L78.658,31.375 C78.664,31.377 78.668,31.377 78.672,31.377 C78.699,31.377 78.731,31.371 78.731,31.412 L78.731,32.612 C78.697,32.629 78.65,32.661 78.65,32.719 C78.65,32.795 78.65,32.777 78.65,32.816 C78.65,32.841 78.63,32.881 78.585,32.881 C78.547,32.881 78.468,32.881 78.402,32.881 C78.361,32.881 78.335,32.912 78.335,32.94 L78.335,33.136 C78.335,33.154 78.357,33.179 78.385,33.178 C78.478,33.175 78.541,33.202 78.541,33.27 C78.541,33.273 78.539,33.34 78.539,33.344 C78.539,33.407 78.476,33.435 78.406,33.459 C78.272,33.506 77.963,33.588 77.955,33.805 C77.445,34.042 76.522,34.549 75.857,35.549 C75.005,36.713 75.086,38.322 75.078,38.55 C75.076,38.597 75.042,38.626 75.005,38.626 C74.981,38.626 74.922,38.626 74.907,38.626 C74.864,38.626 74.864,38.663 74.864,38.663 L74.864,38.83 C74.864,38.83 74.866,38.871 74.822,38.871 C74.779,38.871 74.655,38.871 74.655,38.871 C74.655,38.871 74.613,38.871 74.613,38.917 C74.613,38.954 74.613,39.098 74.613,39.098 C74.613,39.098 74.615,39.135 74.566,39.135 C74.533,39.135 74.399,39.135 74.399,39.135 C74.399,39.135 74.352,39.135 74.352,39.182 C74.352,39.209 74.352,39.317 74.352,39.376 C74.352,39.398 74.366,39.402 74.381,39.404 C74.431,39.411 74.533,39.457 74.533,39.568 C74.533,39.757 74.649,39.775 74.696,39.775 L74.696,40.476 C74.696,40.639 74.568,40.703 74.496,40.72 C74.482,40.723 74.462,40.74 74.462,40.759 C74.462,40.778 74.462,41.48 74.462,41.48 L79.379,40.395 L79.386,40.395 L84.304,41.48 C84.304,41.48 84.304,40.778 84.304,40.759 C84.304,40.74 84.282,40.723 84.267,40.72 C84.195,40.703 84.07,40.639 84.07,40.476 L84.07,39.775 C84.116,39.775 84.233,39.757 84.233,39.568 C84.233,39.457 84.334,39.411 84.383,39.404 C84.4,39.402 84.413,39.398 84.413,39.376 C84.413,39.317 84.413,39.209 84.413,39.182 C84.413,39.135 84.365,39.135 84.365,39.135" fill="#FFFFFF" id="path38"/>
    <path d="M89.805,54.851 L89.805,53.413 L88.964,53.413 L88.964,52.785 L69.788,52.785 L69.788,53.412 L68.945,53.412 L68.945,54.848 L68.1,54.848 L68.1,56.3 L90.65,56.302 L90.65,54.851 L89.805,54.851" fill="#FFFFFF" id="path40"/>
  </g>
</svg>
